<?xml version="1.0" encoding="UTF-8" standalone="no"?>
<svg
   width="720pt"
   height="331pt"
   viewBox="0 0 720 331"
   version="1.1"
   id="svg128"
   sodipodi:docname="ReLU.svg"
   inkscape:version="1.2.2 (b0a8486541, 2022-12-01)"
   xmlns:inkscape="http://www.inkscape.org/namespaces/inkscape"
   xmlns:sodipodi="http://sodipodi.sourceforge.net/DTD/sodipodi-0.dtd"
   xmlns="http://www.w3.org/2000/svg"
   xmlns:svg="http://www.w3.org/2000/svg">
  <sodipodi:namedview
     id="namedview130"
     pagecolor="#ffffff"
     bordercolor="#000000"
     borderopacity="0.25"
     inkscape:showpageshadow="2"
     inkscape:pageopacity="0.0"
     inkscape:pagecheckerboard="0"
     inkscape:deskcolor="#d1d1d1"
     inkscape:document-units="pt"
     showgrid="false"
     inkscape:zoom="1.0694864"
     inkscape:cx="486.68221"
     inkscape:cy="225.80932"
     inkscape:window-width="1854"
     inkscape:window-height="1131"
     inkscape:window-x="0"
     inkscape:window-y="0"
     inkscape:window-maximized="1"
     inkscape:current-layer="svg128" />
  <defs
     id="defs5">
    <rect
       x="485.9371"
       y="-46.934035"
       width="60.988679"
       height="102.7691"
       id="rect2289" />
    <clipPath
       id="clip1">
      <path
         d="M 23 3.824219 L 697 3.824219 L 697 321.457031 L 23 321.457031 Z M 23 3.824219 "
         id="path2" />
    </clipPath>
  </defs>
  <path
     style="fill:none;stroke:#d9d9d9;stroke-width:0.695376;stroke-linecap:butt;stroke-linejoin:miter;stroke-miterlimit:10;stroke-dasharray:5.21546, 5.21546;stroke-opacity:1"
     d="M 63.234375,321.45704 V 3.8241508 M 137.49219,321.45704 V 3.8241508 M 211.75,321.45704 V 3.8241508 M 286.0039,321.45704 V 3.8241508 M 434.51952,321.45704 V 3.8241508 M 508.77733,321.45704 V 3.8241508 M 583.04296,321.45704 V 3.8241508 M 657.30077,321.45704 V 3.8241508"
     id="path7" />
  <path
     style="fill:none;stroke:#d9d9d9;stroke-width:0.695376;stroke-linecap:butt;stroke-linejoin:miter;stroke-miterlimit:10;stroke-dasharray:5.21546, 5.21546;stroke-opacity:1"
     d="M 3.8203135,242.04295 H 716.7031 M 3.8203135,189.10154 H 716.7031 M 3.8203135,136.17184 H 716.7031 M 3.8203135,83.230423 H 716.7031 M 3.8203135,30.292914 H 716.7031"
     id="path9" />
  <path
     style="fill:none;stroke:#7f7f7f;stroke-width:0.347688;stroke-linecap:butt;stroke-linejoin:miter;stroke-miterlimit:10;stroke-opacity:1"
     d="m 63.234375,302.41016 v -7.42969 m 74.257815,7.42969 v -7.42969 m 74.25781,7.42969 v -7.42969 m 74.2539,7.42969 v -7.42969 m 148.51562,7.42969 v -7.42969 m 74.25781,7.42969 v -7.42969 m 74.26563,7.42969 v -7.42969 m 74.25781,7.42969 v -7.42969"
     id="path11" />
  <path
     style="fill:none;stroke:#7f7f7f;stroke-width:0.347688;stroke-linecap:butt;stroke-linejoin:miter;stroke-miterlimit:10;stroke-opacity:1"
     d="m 352.85155,242.04295 h 7.41016 m -7.41016,-52.94141 h 7.41016 m -7.41016,-52.9297 h 7.41016 m -7.41016,-52.941417 h 7.41016 m -7.41016,-52.937509 h 7.41016"
     id="path13" />
  <path
     style="fill:none;stroke:#000000;stroke-width:0.695376;stroke-linecap:butt;stroke-linejoin:miter;stroke-miterlimit:10;stroke-opacity:1"
     d="M 3.8203135,294.98047 H 713.23045"
     id="path15" />
  <path
     style="fill:#000000;fill-opacity:1;fill-rule:nonzero;stroke:none"
     d="m 716.70312,294.98047 -5.55859,-2.78125 2.08594,2.78125 -2.08594,2.78515"
     id="path17" />
  <path
     style="fill:none;stroke:#000000;stroke-width:0.695376;stroke-linecap:butt;stroke-linejoin:miter;stroke-miterlimit:10;stroke-opacity:1"
     d="M 360.26171,321.45704 V 7.3046271"
     id="path19" />
  <path
     style="fill:#000000;fill-opacity:1;fill-rule:nonzero;stroke:none"
     d="m 360.26172,3.824219 -2.77735,5.566406 2.77735,-2.085937 2.78125,2.085937"
     id="path21" />
  <path
     style="fill:#000000;fill-opacity:1;fill-rule:nonzero;stroke:none"
     d="m 63.578125,315.75 c 0.296875,0 0.625,0 0.625,-0.35547 0,-0.32422 -0.328125,-0.32422 -0.625,-0.32422 h -9.402344 c -0.300781,0 -0.601562,0 -0.601562,0.32422 0,0.35547 0.300781,0.35547 0.601562,0.35547 z m 0,0"
     id="path23" />
  <path
     style="fill:#000000;fill-opacity:1;fill-rule:nonzero;stroke:none"
     d="m 68.480469,311.79687 c -0.789063,-0.51953 -0.871094,-1.09375 -0.871094,-1.39062 0,-1.06641 1.144531,-1.80078 2.371094,-1.80078 1.253906,0 2.371093,0.89844 2.371093,2.15234 0,1.01172 -0.683593,1.82813 -1.71875,2.42969 z m 2.535156,1.66407 c 1.253906,-0.65625 2.097656,-1.55469 2.097656,-2.70313 0,-1.60937 -1.527343,-2.58984 -3.105469,-2.58984 -1.746093,0 -3.164062,1.28125 -3.164062,2.91797 0,0.30078 0.02734,1.08984 0.765625,1.91015 0.191406,0.19141 0.84375,0.62891 1.28125,0.92578 -1.011719,0.51954 -2.507813,1.47266 -2.507813,3.21875 0,1.82813 1.769532,3 3.597657,3 1.960937,0 3.625,-1.44531 3.625,-3.29687 0,-0.62891 -0.191407,-1.42188 -0.875,-2.15625 -0.324219,-0.35547 -0.597657,-0.51953 -1.714844,-1.22656 z m -1.746094,0.73437 2.152344,1.36328 c 0.492187,0.32813 1.308594,0.84766 1.308594,1.91016 0,1.28125 -1.308594,2.18359 -2.722657,2.18359 -1.5,0 -2.753906,-1.0664 -2.753906,-2.51172 0,-1.00781 0.546875,-2.125 2.015625,-2.94531 z m 0,0"
     id="path25" />
  <path
     style="fill:#000000;fill-opacity:1;fill-rule:nonzero;stroke:none"
     d="m 137.83203,315.75 c 0.30078,0 0.62891,0 0.62891,-0.35547 0,-0.32422 -0.32813,-0.32422 -0.62891,-0.32422 h -9.40234 c -0.29688,0 -0.59766,0 -0.59766,0.32422 0,0.35547 0.30078,0.35547 0.59766,0.35547 z m 0,0"
     id="path27" />
  <path
     style="fill:#000000;fill-opacity:1;fill-rule:nonzero;stroke:none"
     d="M 142.19141,314.05859 V 313.625 c 0,-4.39453 2.15234,-5.01953 3.05468,-5.01953 0.40625,0 1.14453,0.10937 1.52344,0.70703 -0.26953,0 -0.95312,0 -0.95312,0.76562 0,0.54297 0.41015,0.81641 0.78906,0.81641 0.27344,0 0.82031,-0.16406 0.82031,-0.84375 0,-1.03906 -0.76562,-1.88281 -2.20703,-1.88281 -2.23438,0 -4.57813,2.23828 -4.57813,6.08203 0,4.66406 2.01563,5.89062 3.6211,5.89062 1.9375,0 3.59765,-1.63281 3.59765,-3.92578 0,-2.21093 -1.55078,-3.875 -3.48828,-3.875 -1.17187,0 -1.82422,0.875 -2.17968,1.71875 z m 2.07031,5.59375 c -1.08985,0 -1.60547,-1.03906 -1.71485,-1.30859 -0.32812,-0.82031 -0.32812,-2.21094 -0.32812,-2.51172 0,-1.36328 0.57422,-3.10937 2.125,-3.10937 0.30078,0 1.08984,0 1.63672,1.08984 0.30078,0.62891 0.30078,1.52734 0.30078,2.375 0,0.84375 0,1.71875 -0.30078,2.34375 -0.51953,1.03906 -1.3086,1.12109 -1.71875,1.12109 z m 0,0"
     id="path29" />
  <path
     style="fill:#000000;fill-opacity:1;fill-rule:nonzero;stroke:none"
     d="m 212.08984,315.75 c 0.30078,0 0.62891,0 0.62891,-0.35547 0,-0.32422 -0.32813,-0.32422 -0.62891,-0.32422 h -9.40234 c -0.30078,0 -0.59766,0 -0.59766,0.32422 0,0.35547 0.29688,0.35547 0.59766,0.35547 z m 0,0"
     id="path31" />
  <path
     style="fill:#000000;fill-opacity:1;fill-rule:nonzero;stroke:none"
     d="m 219.28516,316.89844 v 1.5 c 0,0.625 -0.0547,0.8164 -1.33594,0.8164 h -0.35547 v 0.54688 c 0.70703,-0.0547 1.60937,-0.0547 2.34375,-0.0547 0.73437,0 1.63672,0 2.37109,0.0547 v -0.54688 h -0.38281 c -1.28125,0 -1.30859,-0.1914 -1.30859,-0.8164 v -1.5 h 1.71875 v -0.54688 h -1.71875 v -7.91015 c 0,-0.35547 0,-0.46485 -0.29688,-0.46485 -0.13672,0 -0.1914,0 -0.32812,0.21875 l -5.33985,8.15625 v 0.54688 z m 0.0781,-0.54688 h -4.22266 l 4.22266,-6.49219 z m 0,0"
     id="path33" />
  <path
     style="fill:#000000;fill-opacity:1;fill-rule:nonzero;stroke:none"
     d="m 286.34766,315.75 c 0.30078,0 0.625,0 0.625,-0.35547 0,-0.32422 -0.32422,-0.32422 -0.625,-0.32422 h -9.40235 c -0.30078,0 -0.60156,0 -0.60156,0.32422 0,0.35547 0.30078,0.35547 0.60156,0.35547 z m 0,0"
     id="path35" />
  <path
     style="fill:#000000;fill-opacity:1;fill-rule:nonzero;stroke:none"
     d="m 290.625,318.42578 1.85156,-1.80078 c 2.69922,-2.40234 3.73438,-3.32813 3.73438,-5.07422 0,-1.99219 -1.55469,-3.38281 -3.67969,-3.38281 -1.96094,0 -3.24219,1.60937 -3.24219,3.16406 0,0.95313 0.8711,0.95313 0.92578,0.95313 0.30078,0 0.89844,-0.19141 0.89844,-0.92579 0,-0.4375 -0.32422,-0.90234 -0.92578,-0.90234 -0.13672,0 -0.16406,0 -0.21875,0.0273 0.38281,-1.14453 1.33594,-1.76953 2.34375,-1.76953 1.58203,0 2.31641,1.41797 2.31641,2.83594 0,1.39063 -0.84375,2.75391 -1.82422,3.84375 l -3.32422,3.71094 c -0.19141,0.1914 -0.19141,0.24609 -0.19141,0.65625 h 6.45703 l 0.46485,-3.02735 h -0.41016 c -0.10547,0.51563 -0.21484,1.28125 -0.40625,1.55469 -0.10937,0.13672 -1.25391,0.13672 -1.63672,0.13672 z m 0,0"
     id="path37" />
  <path
     style="fill:#000000;fill-opacity:1;fill-rule:nonzero;stroke:none"
     d="m 432.38281,318.42578 1.85156,-1.80078 c 2.69922,-2.40234 3.73438,-3.32813 3.73438,-5.07422 0,-1.99219 -1.55469,-3.38281 -3.67969,-3.38281 -1.96094,0 -3.24219,1.60937 -3.24219,3.16406 0,0.95313 0.8711,0.95313 0.92579,0.95313 0.30078,0 0.89843,-0.19141 0.89843,-0.92579 0,-0.4375 -0.32812,-0.90234 -0.92578,-0.90234 -0.13672,0 -0.16406,0 -0.21875,0.0273 0.38281,-1.14453 1.33594,-1.76953 2.34375,-1.76953 1.58203,0 2.31641,1.41797 2.31641,2.83594 0,1.39063 -0.84375,2.75391 -1.82422,3.84375 l -3.32422,3.71094 c -0.19141,0.1914 -0.19141,0.24609 -0.19141,0.65625 h 6.45704 l 0.46484,-3.02735 h -0.41016 c -0.10937,0.51563 -0.21875,1.28125 -0.40625,1.55469 -0.10937,0.13672 -1.2539,0.13672 -1.63672,0.13672 z m 0,0"
     id="path39" />
  <path
     style="fill:#000000;fill-opacity:1;fill-rule:nonzero;stroke:none"
     d="m 509.55469,316.89844 v 1.5 c 0,0.625 -0.0547,0.8164 -1.33594,0.8164 h -0.35547 v 0.54688 c 0.71094,-0.0547 1.60938,-0.0547 2.34375,-0.0547 0.73828,0 1.63672,0 2.37109,0.0547 v -0.54688 h -0.3789 c -1.28125,0 -1.3086,-0.1914 -1.3086,-0.8164 v -1.5 h 1.71485 v -0.54688 h -1.71485 v -7.91015 c 0,-0.35547 0,-0.46485 -0.30078,-0.46485 -0.13672,0 -0.1914,0 -0.32812,0.21875 l -5.33985,8.15625 v 0.54688 z m 0.082,-0.54688 h -4.22656 l 4.22656,-6.49219 z m 0,0"
     id="path41" />
  <path
     style="fill:#000000;fill-opacity:1;fill-rule:nonzero;stroke:none"
     d="M 580.97656,314.05859 V 313.625 c 0,-4.39453 2.15235,-5.01953 3.05469,-5.01953 0.40625,0 1.14453,0.10937 1.52344,0.70703 -0.27344,0 -0.95313,0 -0.95313,0.76562 0,0.54297 0.41016,0.81641 0.78906,0.81641 0.27344,0 0.82032,-0.16406 0.82032,-0.84375 0,-1.03906 -0.76563,-1.88281 -2.20703,-1.88281 -2.23829,0 -4.58204,2.23828 -4.58204,6.08203 0,4.66406 2.01954,5.89062 3.625,5.89062 1.9375,0 3.59766,-1.63281 3.59766,-3.92578 0,-2.21093 -1.55078,-3.875 -3.48828,-3.875 -1.17188,0 -1.82422,0.875 -2.17969,1.71875 z m 2.07031,5.59375 c -1.08984,0 -1.60546,-1.03906 -1.71484,-1.30859 -0.32812,-0.82031 -0.32812,-2.21094 -0.32812,-2.51172 0,-1.36328 0.57421,-3.10937 2.125,-3.10937 0.30078,0 1.08984,0 1.63671,1.08984 0.30079,0.62891 0.30079,1.52734 0.30079,2.375 0,0.84375 0,1.71875 -0.30079,2.34375 -0.51953,1.03906 -1.30859,1.12109 -1.71875,1.12109 z m 0,0"
     id="path43" />
  <path
     style="fill:#000000;fill-opacity:1;fill-rule:nonzero;stroke:none"
     d="m 655.77734,311.79687 c -0.78906,-0.51953 -0.87109,-1.09375 -0.87109,-1.39062 0,-1.06641 1.14453,-1.80078 2.37109,-1.80078 1.25391,0 2.3711,0.89844 2.3711,2.15234 0,1.01172 -0.67969,1.82813 -1.71485,2.42969 z m 2.53516,1.66407 c 1.25391,-0.65625 2.09766,-1.55469 2.09766,-2.70313 0,-1.60937 -1.52344,-2.58984 -3.10547,-2.58984 -1.74219,0 -3.16016,1.28125 -3.16016,2.91797 0,0.30078 0.0273,1.08984 0.76172,1.91015 0.19141,0.19141 0.84375,0.62891 1.28125,0.92578 -1.00781,0.51954 -2.50781,1.47266 -2.50781,3.21875 0,1.82813 1.77343,3 3.59765,3 1.96094,0 3.625,-1.44531 3.625,-3.29687 0,-0.62891 -0.1914,-1.42188 -0.87109,-2.15625 -0.32813,-0.35547 -0.60156,-0.51953 -1.71875,-1.22656 z m -1.74219,0.73437 2.15235,1.36328 c 0.49218,0.32813 1.30859,0.84766 1.30859,1.91016 0,1.28125 -1.30859,2.18359 -2.72656,2.18359 -1.5,0 -2.75391,-1.0664 -2.75391,-2.51172 0,-1.00781 0.54688,-2.125 2.01953,-2.94531 z m 0,0"
     id="path45" />
  <path
     style="fill:#000000;fill-opacity:1;fill-rule:nonzero;stroke:none"
     d="m 340.22656,246.31641 1.85156,-1.80079 c 2.69922,-2.40234 3.73438,-3.32812 3.73438,-5.07421 0,-1.99219 -1.55469,-3.38282 -3.67969,-3.38282 -1.96094,0 -3.24219,1.60938 -3.24219,3.16407 0,0.95312 0.8711,0.95312 0.92579,0.95312 0.30078,0 0.89843,-0.19141 0.89843,-0.92578 0,-0.4375 -0.32422,-0.90234 -0.92578,-0.90234 -0.13672,0 -0.16406,0 -0.21875,0.0273 0.38281,-1.14453 1.33594,-1.76953 2.34375,-1.76953 1.58203,0 2.31641,1.41797 2.31641,2.83594 0,1.39062 -0.84375,2.7539 -1.82422,3.84375 l -3.32422,3.71093 c -0.19141,0.19141 -0.19141,0.2461 -0.19141,0.65625 h 6.45704 l 0.46484,-3.02734 h -0.41016 c -0.10937,0.51562 -0.21875,1.28125 -0.40625,1.55469 -0.10937,0.13672 -1.2539,0.13672 -1.63672,0.13672 z m 0,0"
     id="path51" />
  <path
     style="fill:#000000;fill-opacity:1;fill-rule:nonzero;stroke:none"
     d="m 343.14062,191.84766 v 1.5 c 0,0.6289 -0.0547,0.82031 -1.33593,0.82031 h -0.35157 v 0.54297 c 0.70704,-0.0547 1.60547,-0.0547 2.34375,-0.0547 0.73438,0 1.63282,0 2.3711,0.0547 v -0.54297 h -0.38281 c -1.28125,0 -1.3086,-0.19141 -1.3086,-0.82031 v -1.5 h 1.71875 v -0.54688 h -1.71875 v -7.91016 c 0,-0.35156 0,-0.46093 -0.30078,-0.46093 -0.13672,0 -0.1875,0 -0.32422,0.21484 l -5.34375,8.15625 v 0.54688 z m 0.082,-0.54688 H 339 l 4.22266,-6.49219 z m 0,0"
     id="path57" />
  <path
     style="fill:#000000;fill-opacity:1;fill-rule:nonzero;stroke:none"
     d="m 340.30859,136.07422 v -0.4375 c 0,-4.39063 2.15235,-5.01953 3.05078,-5.01953 0.41016,0 1.14454,0.10937 1.52735,0.71093 -0.27344,0 -0.95313,0 -0.95313,0.76172 0,0.54688 0.40625,0.82032 0.78907,0.82032 0.27343,0 0.8164,-0.16407 0.8164,-0.84766 0,-1.03516 -0.76172,-1.87891 -2.20703,-1.87891 -2.23437,0 -4.57812,2.23438 -4.57812,6.08203 0,4.66407 2.01562,5.89063 3.625,5.89063 1.93359,0 3.59765,-1.63672 3.59765,-3.92578 0,-2.21094 -1.55469,-3.875 -3.48828,-3.875 -1.17187,0 -1.82812,0.87109 -2.17969,1.71875 z m 2.07032,5.58984 c -1.08985,0 -1.60938,-1.03515 -1.71875,-1.30859 -0.32422,-0.81641 -0.32422,-2.20703 -0.32422,-2.50781 0,-1.36329 0.57031,-3.10938 2.125,-3.10938 0.30078,0 1.08984,0 1.63281,1.08984 0.30078,0.62891 0.30078,1.52735 0.30078,2.375 0,0.84375 0,1.71875 -0.30078,2.34375 -0.51563,1.03516 -1.30469,1.11719 -1.71484,1.11719 z m 0,0"
     id="path63" />
  <path
     style="fill:#000000;fill-opacity:1;fill-rule:nonzero;stroke:none"
     d="m 340.85156,80.871094 c -0.78906,-0.515625 -0.87109,-1.089844 -0.87109,-1.390625 0,-1.0625 1.14453,-1.800781 2.37109,-1.800781 1.25391,0 2.3711,0.902343 2.3711,2.15625 0,1.007812 -0.6836,1.828124 -1.71875,2.425781 z m 2.53516,1.664062 c 1.2539,-0.652344 2.09765,-1.554687 2.09765,-2.699218 0,-1.609376 -1.52343,-2.589844 -3.10546,-2.589844 -1.7461,0 -3.16016,1.28125 -3.16016,2.917968 0,0.300782 0.0273,1.089844 0.76172,1.910157 0.1914,0.1875 0.84375,0.625 1.28125,0.925781 -1.00781,0.519531 -2.50781,1.472656 -2.50781,3.21875 0,1.828125 1.76953,3 3.59765,3 1.96094,0 3.625,-1.445312 3.625,-3.300781 0,-0.625 -0.1914,-1.417969 -0.87109,-2.152344 -0.32813,-0.355469 -0.60156,-0.519531 -1.71875,-1.230469 z m -1.74219,0.738282 2.15234,1.363281 c 0.48829,0.328125 1.3086,0.84375 1.3086,1.910156 0,1.28125 -1.3086,2.179687 -2.72656,2.179687 -1.5,0 -2.75391,-1.0625 -2.75391,-2.507812 0,-1.007812 0.54687,-2.128906 2.01953,-2.945312 z m 0,0"
     id="path69" />
  <path
     style="fill:#000000;fill-opacity:1;fill-rule:nonzero;stroke:none"
     d="m 334.125,24.769531 c 0,-0.433593 0,-0.460937 -0.40625,-0.460937 -1.08984,1.117187 -2.61719,1.117187 -3.16406,1.117187 v 0.546875 c 0.35547,0 1.36328,0 2.26172,-0.464844 v 9.027344 c 0,0.628906 -0.0547,0.820313 -1.60547,0.820313 h -0.54688 v 0.542969 c 0.60156,-0.05469 2.09766,-0.05469 2.8086,-0.05469 0.67968,0 2.20703,0 2.80468,0.05469 v -0.542969 h -0.54297 c -1.58203,0 -1.60937,-0.191407 -1.60937,-0.820313 z m 0,0"
     id="path71" />
  <path
     style="fill:#000000;fill-opacity:1;fill-rule:nonzero;stroke:none"
     d="m 346.00391,30.335938 c 0,-1.390626 -0.082,-2.78125 -0.6836,-4.066407 -0.78906,-1.691406 -2.23437,-1.960937 -2.9414,-1.960937 -1.0625,0 -2.31641,0.460937 -3.05469,2.070312 -0.54297,1.203125 -0.625,2.566406 -0.625,3.957032 0,1.308593 0.0547,2.863281 0.78906,4.199218 0.73828,1.390625 2.01953,1.746094 2.86328,1.746094 0.92578,0 2.26172,-0.355469 3.02344,-2.019531 0.54687,-1.199219 0.62891,-2.5625 0.62891,-3.925781 z m -3.65235,5.5625 c -0.68359,0 -1.71875,-0.433594 -2.01562,-2.097657 -0.19141,-1.039062 -0.19141,-2.648437 -0.19141,-3.683593 0,-1.117188 0,-2.265626 0.13672,-3.191407 0.32422,-2.074219 1.63281,-2.238281 2.07031,-2.238281 0.57031,0 1.71485,0.328125 2.04297,2.046875 0.19141,0.984375 0.19141,2.292969 0.19141,3.382813 0,1.308593 0,2.484374 -0.19141,3.601562 -0.27344,1.664062 -1.25391,2.179688 -2.04297,2.179688 z m 0,0"
     id="path75" />
  <line
     x1="0"
     y1="295"
     x2="361"
     y2="295"
     style="fill:none;stroke:#ff0000;stroke-width:1.59404;stroke-linecap:butt;stroke-linejoin:miter;stroke-miterlimit:10;stroke-opacity:1"
     id="path77" />
  <line
     x1="361.02356"
     y1="294.97821"
     x2="718.72375"
     y2="39.027248"
     style="fill:none;stroke:#ff0000;stroke-width:1.59404;stroke-linecap:butt;stroke-linejoin:miter;stroke-miterlimit:10;stroke-opacity:1"
     id="path77-6" />
  <text
     xml:space="preserve"
     transform="scale(0.75)"
     id="text2287"
     style="fill:#000000;stroke-width:4;white-space:pre;shape-inside:url(#rect2289)" />
</svg>
