<?xml version="1.0" encoding="UTF-8" standalone="no"?>
<svg
   width="720pt"
   height="331pt"
   viewBox="0 0 720 331"
   version="1.1"
   id="svg128"
   sodipodi:docname="sigmoid.svg"
   inkscape:version="1.2.2 (b0a8486541, 2022-12-01)"
   xmlns:inkscape="http://www.inkscape.org/namespaces/inkscape"
   xmlns:sodipodi="http://sodipodi.sourceforge.net/DTD/sodipodi-0.dtd"
   xmlns="http://www.w3.org/2000/svg"
   xmlns:svg="http://www.w3.org/2000/svg">
  <sodipodi:namedview
     id="namedview130"
     pagecolor="#ffffff"
     bordercolor="#000000"
     borderopacity="0.25"
     inkscape:showpageshadow="2"
     inkscape:pageopacity="0.0"
     inkscape:pagecheckerboard="0"
     inkscape:deskcolor="#d1d1d1"
     inkscape:document-units="pt"
     showgrid="false"
     inkscape:zoom="1.0694864"
     inkscape:cx="483.87712"
     inkscape:cy="223.93927"
     inkscape:window-width="1854"
     inkscape:window-height="1131"
     inkscape:window-x="0"
     inkscape:window-y="0"
     inkscape:window-maximized="1"
     inkscape:current-layer="svg128" />
  <defs
     id="defs5">
    <rect
       x="485.9371"
       y="-46.934035"
       width="60.988679"
       height="102.7691"
       id="rect2289" />
    <clipPath
       id="clip1">
      <path
         d="M 23 3.824219 L 697 3.824219 L 697 321.457031 L 23 321.457031 Z M 23 3.824219 "
         id="path2" />
    </clipPath>
  </defs>
  <path
     style="fill:none;stroke:#d9d9d9;stroke-width:0.695376;stroke-linecap:butt;stroke-linejoin:miter;stroke-miterlimit:10;stroke-dasharray:5.21546, 5.21546;stroke-opacity:1"
     d="M 63.234375,321.45704 V 3.8241508 M 137.49219,321.45704 V 3.8241508 M 211.75,321.45704 V 3.8241508 M 286.0039,321.45704 V 3.8241508 M 434.51952,321.45704 V 3.8241508 M 508.77733,321.45704 V 3.8241508 M 583.04296,321.45704 V 3.8241508 M 657.30077,321.45704 V 3.8241508"
     id="path7" />
  <path
     style="fill:none;stroke:#d9d9d9;stroke-width:0.695376;stroke-linecap:butt;stroke-linejoin:miter;stroke-miterlimit:10;stroke-dasharray:5.21546, 5.21546;stroke-opacity:1"
     d="M 3.8203135,242.04295 H 716.7031 M 3.8203135,189.10154 H 716.7031 M 3.8203135,136.17184 H 716.7031 M 3.8203135,83.230423 H 716.7031 M 3.8203135,30.292914 H 716.7031"
     id="path9" />
  <path
     style="fill:none;stroke:#7f7f7f;stroke-width:0.347688;stroke-linecap:butt;stroke-linejoin:miter;stroke-miterlimit:10;stroke-opacity:1"
     d="m 63.234375,302.41016 v -7.42969 m 74.257815,7.42969 v -7.42969 m 74.25781,7.42969 v -7.42969 m 74.2539,7.42969 v -7.42969 m 148.51562,7.42969 v -7.42969 m 74.25781,7.42969 v -7.42969 m 74.26563,7.42969 v -7.42969 m 74.25781,7.42969 v -7.42969"
     id="path11" />
  <path
     style="fill:none;stroke:#7f7f7f;stroke-width:0.347688;stroke-linecap:butt;stroke-linejoin:miter;stroke-miterlimit:10;stroke-opacity:1"
     d="m 352.85155,242.04295 h 7.41016 m -7.41016,-52.94141 h 7.41016 m -7.41016,-52.9297 h 7.41016 m -7.41016,-52.941417 h 7.41016 m -7.41016,-52.937509 h 7.41016"
     id="path13" />
  <path
     style="fill:none;stroke:#000000;stroke-width:0.695376;stroke-linecap:butt;stroke-linejoin:miter;stroke-miterlimit:10;stroke-opacity:1"
     d="M 3.8203135,294.98047 H 713.23045"
     id="path15" />
  <path
     style="fill:#000000;fill-opacity:1;fill-rule:nonzero;stroke:none"
     d="m 716.70312,294.98047 -5.55859,-2.78125 2.08594,2.78125 -2.08594,2.78515"
     id="path17" />
  <path
     style="fill:none;stroke:#000000;stroke-width:0.695376;stroke-linecap:butt;stroke-linejoin:miter;stroke-miterlimit:10;stroke-opacity:1"
     d="M 360.26171,321.45704 V 7.3046271"
     id="path19" />
  <path
     style="fill:#000000;fill-opacity:1;fill-rule:nonzero;stroke:none"
     d="m 360.26172,3.824219 -2.77735,5.566406 2.77735,-2.085937 2.78125,2.085937"
     id="path21" />
  <path
     style="fill:#000000;fill-opacity:1;fill-rule:nonzero;stroke:none"
     d="m 63.578125,315.75 c 0.296875,0 0.625,0 0.625,-0.35547 0,-0.32422 -0.328125,-0.32422 -0.625,-0.32422 h -9.402344 c -0.300781,0 -0.601562,0 -0.601562,0.32422 0,0.35547 0.300781,0.35547 0.601562,0.35547 z m 0,0"
     id="path23" />
  <path
     style="fill:#000000;fill-opacity:1;fill-rule:nonzero;stroke:none"
     d="m 68.480469,311.79687 c -0.789063,-0.51953 -0.871094,-1.09375 -0.871094,-1.39062 0,-1.06641 1.144531,-1.80078 2.371094,-1.80078 1.253906,0 2.371093,0.89844 2.371093,2.15234 0,1.01172 -0.683593,1.82813 -1.71875,2.42969 z m 2.535156,1.66407 c 1.253906,-0.65625 2.097656,-1.55469 2.097656,-2.70313 0,-1.60937 -1.527343,-2.58984 -3.105469,-2.58984 -1.746093,0 -3.164062,1.28125 -3.164062,2.91797 0,0.30078 0.02734,1.08984 0.765625,1.91015 0.191406,0.19141 0.84375,0.62891 1.28125,0.92578 -1.011719,0.51954 -2.507813,1.47266 -2.507813,3.21875 0,1.82813 1.769532,3 3.597657,3 1.960937,0 3.625,-1.44531 3.625,-3.29687 0,-0.62891 -0.191407,-1.42188 -0.875,-2.15625 -0.324219,-0.35547 -0.597657,-0.51953 -1.714844,-1.22656 z m -1.746094,0.73437 2.152344,1.36328 c 0.492187,0.32813 1.308594,0.84766 1.308594,1.91016 0,1.28125 -1.308594,2.18359 -2.722657,2.18359 -1.5,0 -2.753906,-1.0664 -2.753906,-2.51172 0,-1.00781 0.546875,-2.125 2.015625,-2.94531 z m 0,0"
     id="path25" />
  <path
     style="fill:#000000;fill-opacity:1;fill-rule:nonzero;stroke:none"
     d="m 137.83203,315.75 c 0.30078,0 0.62891,0 0.62891,-0.35547 0,-0.32422 -0.32813,-0.32422 -0.62891,-0.32422 h -9.40234 c -0.29688,0 -0.59766,0 -0.59766,0.32422 0,0.35547 0.30078,0.35547 0.59766,0.35547 z m 0,0"
     id="path27" />
  <path
     style="fill:#000000;fill-opacity:1;fill-rule:nonzero;stroke:none"
     d="M 142.19141,314.05859 V 313.625 c 0,-4.39453 2.15234,-5.01953 3.05468,-5.01953 0.40625,0 1.14453,0.10937 1.52344,0.70703 -0.26953,0 -0.95312,0 -0.95312,0.76562 0,0.54297 0.41015,0.81641 0.78906,0.81641 0.27344,0 0.82031,-0.16406 0.82031,-0.84375 0,-1.03906 -0.76562,-1.88281 -2.20703,-1.88281 -2.23438,0 -4.57813,2.23828 -4.57813,6.08203 0,4.66406 2.01563,5.89062 3.6211,5.89062 1.9375,0 3.59765,-1.63281 3.59765,-3.92578 0,-2.21093 -1.55078,-3.875 -3.48828,-3.875 -1.17187,0 -1.82422,0.875 -2.17968,1.71875 z m 2.07031,5.59375 c -1.08985,0 -1.60547,-1.03906 -1.71485,-1.30859 -0.32812,-0.82031 -0.32812,-2.21094 -0.32812,-2.51172 0,-1.36328 0.57422,-3.10937 2.125,-3.10937 0.30078,0 1.08984,0 1.63672,1.08984 0.30078,0.62891 0.30078,1.52734 0.30078,2.375 0,0.84375 0,1.71875 -0.30078,2.34375 -0.51953,1.03906 -1.3086,1.12109 -1.71875,1.12109 z m 0,0"
     id="path29" />
  <path
     style="fill:#000000;fill-opacity:1;fill-rule:nonzero;stroke:none"
     d="m 212.08984,315.75 c 0.30078,0 0.62891,0 0.62891,-0.35547 0,-0.32422 -0.32813,-0.32422 -0.62891,-0.32422 h -9.40234 c -0.30078,0 -0.59766,0 -0.59766,0.32422 0,0.35547 0.29688,0.35547 0.59766,0.35547 z m 0,0"
     id="path31" />
  <path
     style="fill:#000000;fill-opacity:1;fill-rule:nonzero;stroke:none"
     d="m 219.28516,316.89844 v 1.5 c 0,0.625 -0.0547,0.8164 -1.33594,0.8164 h -0.35547 v 0.54688 c 0.70703,-0.0547 1.60937,-0.0547 2.34375,-0.0547 0.73437,0 1.63672,0 2.37109,0.0547 v -0.54688 h -0.38281 c -1.28125,0 -1.30859,-0.1914 -1.30859,-0.8164 v -1.5 h 1.71875 v -0.54688 h -1.71875 v -7.91015 c 0,-0.35547 0,-0.46485 -0.29688,-0.46485 -0.13672,0 -0.1914,0 -0.32812,0.21875 l -5.33985,8.15625 v 0.54688 z m 0.0781,-0.54688 h -4.22266 l 4.22266,-6.49219 z m 0,0"
     id="path33" />
  <path
     style="fill:#000000;fill-opacity:1;fill-rule:nonzero;stroke:none"
     d="m 286.34766,315.75 c 0.30078,0 0.625,0 0.625,-0.35547 0,-0.32422 -0.32422,-0.32422 -0.625,-0.32422 h -9.40235 c -0.30078,0 -0.60156,0 -0.60156,0.32422 0,0.35547 0.30078,0.35547 0.60156,0.35547 z m 0,0"
     id="path35" />
  <path
     style="fill:#000000;fill-opacity:1;fill-rule:nonzero;stroke:none"
     d="m 290.625,318.42578 1.85156,-1.80078 c 2.69922,-2.40234 3.73438,-3.32813 3.73438,-5.07422 0,-1.99219 -1.55469,-3.38281 -3.67969,-3.38281 -1.96094,0 -3.24219,1.60937 -3.24219,3.16406 0,0.95313 0.8711,0.95313 0.92578,0.95313 0.30078,0 0.89844,-0.19141 0.89844,-0.92579 0,-0.4375 -0.32422,-0.90234 -0.92578,-0.90234 -0.13672,0 -0.16406,0 -0.21875,0.0273 0.38281,-1.14453 1.33594,-1.76953 2.34375,-1.76953 1.58203,0 2.31641,1.41797 2.31641,2.83594 0,1.39063 -0.84375,2.75391 -1.82422,3.84375 l -3.32422,3.71094 c -0.19141,0.1914 -0.19141,0.24609 -0.19141,0.65625 h 6.45703 l 0.46485,-3.02735 h -0.41016 c -0.10547,0.51563 -0.21484,1.28125 -0.40625,1.55469 -0.10937,0.13672 -1.25391,0.13672 -1.63672,0.13672 z m 0,0"
     id="path37" />
  <path
     style="fill:#000000;fill-opacity:1;fill-rule:nonzero;stroke:none"
     d="m 432.38281,318.42578 1.85156,-1.80078 c 2.69922,-2.40234 3.73438,-3.32813 3.73438,-5.07422 0,-1.99219 -1.55469,-3.38281 -3.67969,-3.38281 -1.96094,0 -3.24219,1.60937 -3.24219,3.16406 0,0.95313 0.8711,0.95313 0.92579,0.95313 0.30078,0 0.89843,-0.19141 0.89843,-0.92579 0,-0.4375 -0.32812,-0.90234 -0.92578,-0.90234 -0.13672,0 -0.16406,0 -0.21875,0.0273 0.38281,-1.14453 1.33594,-1.76953 2.34375,-1.76953 1.58203,0 2.31641,1.41797 2.31641,2.83594 0,1.39063 -0.84375,2.75391 -1.82422,3.84375 l -3.32422,3.71094 c -0.19141,0.1914 -0.19141,0.24609 -0.19141,0.65625 h 6.45704 l 0.46484,-3.02735 h -0.41016 c -0.10937,0.51563 -0.21875,1.28125 -0.40625,1.55469 -0.10937,0.13672 -1.2539,0.13672 -1.63672,0.13672 z m 0,0"
     id="path39" />
  <path
     style="fill:#000000;fill-opacity:1;fill-rule:nonzero;stroke:none"
     d="m 509.55469,316.89844 v 1.5 c 0,0.625 -0.0547,0.8164 -1.33594,0.8164 h -0.35547 v 0.54688 c 0.71094,-0.0547 1.60938,-0.0547 2.34375,-0.0547 0.73828,0 1.63672,0 2.37109,0.0547 v -0.54688 h -0.3789 c -1.28125,0 -1.3086,-0.1914 -1.3086,-0.8164 v -1.5 h 1.71485 v -0.54688 h -1.71485 v -7.91015 c 0,-0.35547 0,-0.46485 -0.30078,-0.46485 -0.13672,0 -0.1914,0 -0.32812,0.21875 l -5.33985,8.15625 v 0.54688 z m 0.082,-0.54688 h -4.22656 l 4.22656,-6.49219 z m 0,0"
     id="path41" />
  <path
     style="fill:#000000;fill-opacity:1;fill-rule:nonzero;stroke:none"
     d="M 580.97656,314.05859 V 313.625 c 0,-4.39453 2.15235,-5.01953 3.05469,-5.01953 0.40625,0 1.14453,0.10937 1.52344,0.70703 -0.27344,0 -0.95313,0 -0.95313,0.76562 0,0.54297 0.41016,0.81641 0.78906,0.81641 0.27344,0 0.82032,-0.16406 0.82032,-0.84375 0,-1.03906 -0.76563,-1.88281 -2.20703,-1.88281 -2.23829,0 -4.58204,2.23828 -4.58204,6.08203 0,4.66406 2.01954,5.89062 3.625,5.89062 1.9375,0 3.59766,-1.63281 3.59766,-3.92578 0,-2.21093 -1.55078,-3.875 -3.48828,-3.875 -1.17188,0 -1.82422,0.875 -2.17969,1.71875 z m 2.07031,5.59375 c -1.08984,0 -1.60546,-1.03906 -1.71484,-1.30859 -0.32812,-0.82031 -0.32812,-2.21094 -0.32812,-2.51172 0,-1.36328 0.57421,-3.10937 2.125,-3.10937 0.30078,0 1.08984,0 1.63671,1.08984 0.30079,0.62891 0.30079,1.52734 0.30079,2.375 0,0.84375 0,1.71875 -0.30079,2.34375 -0.51953,1.03906 -1.30859,1.12109 -1.71875,1.12109 z m 0,0"
     id="path43" />
  <path
     style="fill:#000000;fill-opacity:1;fill-rule:nonzero;stroke:none"
     d="m 655.77734,311.79687 c -0.78906,-0.51953 -0.87109,-1.09375 -0.87109,-1.39062 0,-1.06641 1.14453,-1.80078 2.37109,-1.80078 1.25391,0 2.3711,0.89844 2.3711,2.15234 0,1.01172 -0.67969,1.82813 -1.71485,2.42969 z m 2.53516,1.66407 c 1.25391,-0.65625 2.09766,-1.55469 2.09766,-2.70313 0,-1.60937 -1.52344,-2.58984 -3.10547,-2.58984 -1.74219,0 -3.16016,1.28125 -3.16016,2.91797 0,0.30078 0.0273,1.08984 0.76172,1.91015 0.19141,0.19141 0.84375,0.62891 1.28125,0.92578 -1.00781,0.51954 -2.50781,1.47266 -2.50781,3.21875 0,1.82813 1.77343,3 3.59765,3 1.96094,0 3.625,-1.44531 3.625,-3.29687 0,-0.62891 -0.1914,-1.42188 -0.87109,-2.15625 -0.32813,-0.35547 -0.60156,-0.51953 -1.71875,-1.22656 z m -1.74219,0.73437 2.15235,1.36328 c 0.49218,0.32813 1.30859,0.84766 1.30859,1.91016 0,1.28125 -1.30859,2.18359 -2.72656,2.18359 -1.5,0 -2.75391,-1.0664 -2.75391,-2.51172 0,-1.00781 0.54688,-2.125 2.01953,-2.94531 z m 0,0"
     id="path45" />
  <path
     style="fill:#000000;fill-opacity:1;fill-rule:nonzero;stroke:none"
     d="m 332.48828,242.08594 c 0,-1.39063 -0.082,-2.78125 -0.68359,-4.0625 -0.78907,-1.69141 -2.23438,-1.96485 -2.94141,-1.96485 -1.0625,0 -2.31641,0.46485 -3.05469,2.07422 -0.54297,1.19922 -0.625,2.5625 -0.625,3.95313 0,1.30859 0.0547,2.86328 0.78907,4.20312 0.73828,1.39063 2.01953,1.74219 2.86328,1.74219 0.92578,0 2.26172,-0.35156 3.02343,-2.01563 0.54688,-1.20312 0.62891,-2.5664 0.62891,-3.92968 z m -3.65234,5.5664 c -0.6836,0 -1.71875,-0.4375 -2.01563,-2.10156 -0.1914,-1.03516 -0.1914,-2.64453 -0.1914,-3.68359 0,-1.11719 0,-2.26172 0.13671,-3.19141 0.32422,-2.07031 1.63282,-2.23437 2.07032,-2.23437 0.57031,0 1.71484,0.32421 2.04297,2.04296 0.1914,0.98438 0.1914,2.29297 0.1914,3.38282 0,1.30859 0,2.48437 -0.1914,3.60156 -0.27344,1.66406 -1.25391,2.18359 -2.04297,2.18359 z m 0,0"
     id="path47" />
  <path
     style="fill:#000000;fill-opacity:1;fill-rule:nonzero;stroke:none"
     d="m 336.51562,246.72266 c 0,-0.48829 -0.41015,-0.92579 -0.89843,-0.92579 -0.51953,0 -0.92969,0.4375 -0.92969,0.92579 0,0.51953 0.41016,0.92968 0.92969,0.92968 0.48828,0 0.89843,-0.41015 0.89843,-0.92968 z m 0,0"
     id="path49" />
  <path
     style="fill:#000000;fill-opacity:1;fill-rule:nonzero;stroke:none"
     d="m 340.22656,246.31641 1.85156,-1.80079 c 2.69922,-2.40234 3.73438,-3.32812 3.73438,-5.07421 0,-1.99219 -1.55469,-3.38282 -3.67969,-3.38282 -1.96094,0 -3.24219,1.60938 -3.24219,3.16407 0,0.95312 0.8711,0.95312 0.92579,0.95312 0.30078,0 0.89843,-0.19141 0.89843,-0.92578 0,-0.4375 -0.32422,-0.90234 -0.92578,-0.90234 -0.13672,0 -0.16406,0 -0.21875,0.0273 0.38281,-1.14453 1.33594,-1.76953 2.34375,-1.76953 1.58203,0 2.31641,1.41797 2.31641,2.83594 0,1.39062 -0.84375,2.7539 -1.82422,3.84375 l -3.32422,3.71093 c -0.19141,0.19141 -0.19141,0.2461 -0.19141,0.65625 h 6.45704 l 0.46484,-3.02734 h -0.41016 c -0.10937,0.51562 -0.21875,1.28125 -0.40625,1.55469 -0.10937,0.13672 -1.2539,0.13672 -1.63672,0.13672 z m 0,0"
     id="path51" />
  <path
     style="fill:#000000;fill-opacity:1;fill-rule:nonzero;stroke:none"
     d="m 332.48828,189.14844 c 0,-1.39063 -0.082,-2.78516 -0.68359,-4.06641 -0.78907,-1.69141 -2.23438,-1.96484 -2.94141,-1.96484 -1.0625,0 -2.31641,0.46484 -3.05469,2.07422 -0.54297,1.19921 -0.625,2.5664 -0.625,3.95703 0,1.30859 0.0547,2.86328 0.78907,4.19922 0.73828,1.39062 2.01953,1.74609 2.86328,1.74609 0.92578,0 2.26172,-0.35547 3.02343,-2.01953 0.54688,-1.19922 0.62891,-2.5625 0.62891,-3.92578 z m -3.65234,5.5625 c -0.6836,0 -1.71875,-0.4336 -2.01563,-2.09766 -0.1914,-1.03906 -0.1914,-2.64844 -0.1914,-3.68359 0,-1.11719 0,-2.26563 0.13671,-3.19141 0.32422,-2.07422 1.63282,-2.23828 2.07032,-2.23828 0.57031,0 1.71484,0.32812 2.04297,2.04687 0.1914,0.98047 0.1914,2.29297 0.1914,3.38282 0,1.30859 0,2.48047 -0.1914,3.60156 -0.27344,1.66406 -1.25391,2.17969 -2.04297,2.17969 z m 0,0"
     id="path53" />
  <path
     style="fill:#000000;fill-opacity:1;fill-rule:nonzero;stroke:none"
     d="m 336.51562,193.78516 c 0,-0.49219 -0.41015,-0.92969 -0.89843,-0.92969 -0.51953,0 -0.92969,0.4375 -0.92969,0.92969 0,0.51953 0.41016,0.92578 0.92969,0.92578 0.48828,0 0.89843,-0.40625 0.89843,-0.92578 z m 0,0"
     id="path55" />
  <path
     style="fill:#000000;fill-opacity:1;fill-rule:nonzero;stroke:none"
     d="m 343.14062,191.84766 v 1.5 c 0,0.6289 -0.0547,0.82031 -1.33593,0.82031 h -0.35157 v 0.54297 c 0.70704,-0.0547 1.60547,-0.0547 2.34375,-0.0547 0.73438,0 1.63282,0 2.3711,0.0547 v -0.54297 h -0.38281 c -1.28125,0 -1.3086,-0.19141 -1.3086,-0.82031 v -1.5 h 1.71875 v -0.54688 h -1.71875 v -7.91016 c 0,-0.35156 0,-0.46093 -0.30078,-0.46093 -0.13672,0 -0.1875,0 -0.32422,0.21484 l -5.34375,8.15625 v 0.54688 z m 0.082,-0.54688 H 339 l 4.22266,-6.49219 z m 0,0"
     id="path57" />
  <path
     style="fill:#000000;fill-opacity:1;fill-rule:nonzero;stroke:none"
     d="m 332.48828,136.21094 c 0,-1.39063 -0.082,-2.78125 -0.68359,-4.06641 -0.78907,-1.69141 -2.23438,-1.96094 -2.94141,-1.96094 -1.0625,0 -2.31641,0.46094 -3.05469,2.07032 -0.54297,1.20312 -0.625,2.5664 -0.625,3.95703 0,1.30859 0.0547,2.86328 0.78907,4.19922 0.73828,1.39062 2.01953,1.74609 2.86328,1.74609 0.92578,0 2.26172,-0.35547 3.02343,-2.01953 0.54688,-1.19922 0.62891,-2.5625 0.62891,-3.92578 z m -3.65234,5.5625 c -0.6836,0 -1.71875,-0.4336 -2.01563,-2.09766 -0.1914,-1.03906 -0.1914,-2.64844 -0.1914,-3.68359 0,-1.11719 0,-2.26563 0.13671,-3.19141 0.32422,-2.07422 1.63282,-2.23828 2.07032,-2.23828 0.57031,0 1.71484,0.32812 2.04297,2.04687 0.1914,0.98047 0.1914,2.29297 0.1914,3.38282 0,1.30859 0,2.48047 -0.1914,3.60156 -0.27344,1.66406 -1.25391,2.17969 -2.04297,2.17969 z m 0,0"
     id="path59" />
  <path
     style="fill:#000000;fill-opacity:1;fill-rule:nonzero;stroke:none"
     d="m 336.51562,140.84766 c 0,-0.49219 -0.41015,-0.92579 -0.89843,-0.92579 -0.51953,0 -0.92969,0.4336 -0.92969,0.92579 0,0.51953 0.41016,0.92578 0.92969,0.92578 0.48828,0 0.89843,-0.40625 0.89843,-0.92578 z m 0,0"
     id="path61" />
  <path
     style="fill:#000000;fill-opacity:1;fill-rule:nonzero;stroke:none"
     d="m 340.30859,136.07422 v -0.4375 c 0,-4.39063 2.15235,-5.01953 3.05078,-5.01953 0.41016,0 1.14454,0.10937 1.52735,0.71093 -0.27344,0 -0.95313,0 -0.95313,0.76172 0,0.54688 0.40625,0.82032 0.78907,0.82032 0.27343,0 0.8164,-0.16407 0.8164,-0.84766 0,-1.03516 -0.76172,-1.87891 -2.20703,-1.87891 -2.23437,0 -4.57812,2.23438 -4.57812,6.08203 0,4.66407 2.01562,5.89063 3.625,5.89063 1.93359,0 3.59765,-1.63672 3.59765,-3.92578 0,-2.21094 -1.55469,-3.875 -3.48828,-3.875 -1.17187,0 -1.82812,0.87109 -2.17969,1.71875 z m 2.07032,5.58984 c -1.08985,0 -1.60938,-1.03515 -1.71875,-1.30859 -0.32422,-0.81641 -0.32422,-2.20703 -0.32422,-2.50781 0,-1.36329 0.57031,-3.10938 2.125,-3.10938 0.30078,0 1.08984,0 1.63281,1.08984 0.30078,0.62891 0.30078,1.52735 0.30078,2.375 0,0.84375 0,1.71875 -0.30078,2.34375 -0.51563,1.03516 -1.30469,1.11719 -1.71484,1.11719 z m 0,0"
     id="path63" />
  <path
     style="fill:#000000;fill-opacity:1;fill-rule:nonzero;stroke:none"
     d="m 332.48828,83.273438 c 0,-1.390626 -0.082,-2.78125 -0.68359,-4.066407 -0.78907,-1.691406 -2.23438,-1.960937 -2.94141,-1.960937 -1.0625,0 -2.31641,0.460937 -3.05469,2.070312 -0.54297,1.203125 -0.625,2.566406 -0.625,3.957032 0,1.308593 0.0547,2.863281 0.78907,4.199218 0.73828,1.390625 2.01953,1.746094 2.86328,1.746094 0.92578,0 2.26172,-0.355469 3.02343,-2.019531 0.54688,-1.199219 0.62891,-2.5625 0.62891,-3.925781 z m -3.65234,5.5625 c -0.6836,0 -1.71875,-0.433594 -2.01563,-2.097657 -0.1914,-1.039062 -0.1914,-2.648437 -0.1914,-3.683593 0,-1.117188 0,-2.265626 0.13671,-3.191407 0.32422,-2.074219 1.63282,-2.238281 2.07032,-2.238281 0.57031,0 1.71484,0.328125 2.04297,2.046875 0.1914,0.980469 0.1914,2.292969 0.1914,3.382813 0,1.308593 0,2.480468 -0.1914,3.601562 -0.27344,1.664062 -1.25391,2.179688 -2.04297,2.179688 z m 0,0"
     id="path65" />
  <path
     style="fill:#000000;fill-opacity:1;fill-rule:nonzero;stroke:none"
     d="m 336.51562,87.910156 c 0,-0.492187 -0.41015,-0.925781 -0.89843,-0.925781 -0.51953,0 -0.92969,0.433594 -0.92969,0.925781 0,0.519532 0.41016,0.925782 0.92969,0.925782 0.48828,0 0.89843,-0.40625 0.89843,-0.925782 z m 0,0"
     id="path67" />
  <path
     style="fill:#000000;fill-opacity:1;fill-rule:nonzero;stroke:none"
     d="m 340.85156,80.871094 c -0.78906,-0.515625 -0.87109,-1.089844 -0.87109,-1.390625 0,-1.0625 1.14453,-1.800781 2.37109,-1.800781 1.25391,0 2.3711,0.902343 2.3711,2.15625 0,1.007812 -0.6836,1.828124 -1.71875,2.425781 z m 2.53516,1.664062 c 1.2539,-0.652344 2.09765,-1.554687 2.09765,-2.699218 0,-1.609376 -1.52343,-2.589844 -3.10546,-2.589844 -1.7461,0 -3.16016,1.28125 -3.16016,2.917968 0,0.300782 0.0273,1.089844 0.76172,1.910157 0.1914,0.1875 0.84375,0.625 1.28125,0.925781 -1.00781,0.519531 -2.50781,1.472656 -2.50781,3.21875 0,1.828125 1.76953,3 3.59765,3 1.96094,0 3.625,-1.445312 3.625,-3.300781 0,-0.625 -0.1914,-1.417969 -0.87109,-2.152344 -0.32813,-0.355469 -0.60156,-0.519531 -1.71875,-1.230469 z m -1.74219,0.738282 2.15234,1.363281 c 0.48829,0.328125 1.3086,0.84375 1.3086,1.910156 0,1.28125 -1.3086,2.179687 -2.72656,2.179687 -1.5,0 -2.75391,-1.0625 -2.75391,-2.507812 0,-1.007812 0.54687,-2.128906 2.01953,-2.945312 z m 0,0"
     id="path69" />
  <path
     style="fill:#000000;fill-opacity:1;fill-rule:nonzero;stroke:none"
     d="m 329.625,24.769531 c 0,-0.433593 0,-0.460937 -0.40625,-0.460937 -1.08984,1.117187 -2.61719,1.117187 -3.16406,1.117187 v 0.546875 c 0.35547,0 1.36328,0 2.26172,-0.464844 v 9.027344 c 0,0.628906 -0.0547,0.820313 -1.60547,0.820313 h -0.54688 v 0.542969 c 0.60156,-0.05469 2.09766,-0.05469 2.8086,-0.05469 0.67968,0 2.20703,0 2.80468,0.05469 v -0.542969 h -0.54297 c -1.58203,0 -1.60937,-0.191407 -1.60937,-0.820313 z m 0,0"
     id="path71" />
  <path
     style="fill:#000000;fill-opacity:1;fill-rule:nonzero;stroke:none"
     d="m 336.51562,34.972656 c 0,-0.492187 -0.41015,-0.925781 -0.89843,-0.925781 -0.51953,0 -0.92969,0.433594 -0.92969,0.925781 0,0.519532 0.41016,0.925782 0.92969,0.925782 0.48828,0 0.89843,-0.40625 0.89843,-0.925782 z m 0,0"
     id="path73" />
  <path
     style="fill:#000000;fill-opacity:1;fill-rule:nonzero;stroke:none"
     d="m 346.00391,30.335938 c 0,-1.390626 -0.082,-2.78125 -0.6836,-4.066407 -0.78906,-1.691406 -2.23437,-1.960937 -2.9414,-1.960937 -1.0625,0 -2.31641,0.460937 -3.05469,2.070312 -0.54297,1.203125 -0.625,2.566406 -0.625,3.957032 0,1.308593 0.0547,2.863281 0.78906,4.199218 0.73828,1.390625 2.01953,1.746094 2.86328,1.746094 0.92578,0 2.26172,-0.355469 3.02344,-2.019531 0.54687,-1.199219 0.62891,-2.5625 0.62891,-3.925781 z m -3.65235,5.5625 c -0.68359,0 -1.71875,-0.433594 -2.01562,-2.097657 -0.19141,-1.039062 -0.19141,-2.648437 -0.19141,-3.683593 0,-1.117188 0,-2.265626 0.13672,-3.191407 0.32422,-2.074219 1.63281,-2.238281 2.07031,-2.238281 0.57031,0 1.71485,0.328125 2.04297,2.046875 0.19141,0.984375 0.19141,2.292969 0.19141,3.382813 0,1.308593 0,2.484374 -0.19141,3.601562 -0.27344,1.664062 -1.25391,2.179688 -2.04297,2.179688 z m 0,0"
     id="path75" />
  <g
     clip-path="url(#clip1)"
     clip-rule="nonzero"
     id="g79">
    <path
       style="fill:none;stroke:#ff0000;stroke-width:1.59404;stroke-linecap:butt;stroke-linejoin:miter;stroke-miterlimit:10;stroke-opacity:1"
       d="m 0.001375,0.0505616 h 0.683073 l 0.680833,0.004475 H 2.048354 L 2.731427,0.0595117 H 3.410021 L 4.095333,0.0617492 H 4.778406 L 5.461479,0.0662243 H 6.142313 L 6.825385,0.0706994 H 7.508458 L 8.191531,0.0751745 8.872365,0.077412 h 0.683073 l 1.368385,0.0089502 h 0.678594 l 2.051458,0.0111876 h 0.678594 l 2.051458,0.0111882 0.678594,0.004475 1.368385,0.00895 0.678594,0.002237 2.051458,0.013426 0.680834,0.002237 0.683073,0.004475 0.683072,0.00895 0.683073,0.002238 0.680834,0.004475 0.683073,0.00895 1.366146,0.006713 0.680833,0.00895 0.683073,0.002237 1.368385,0.015663 0.678594,0.004475 2.051458,0.024613 0.678594,0.006713 0.685313,0.004475 0.683072,0.011187 0.678594,0.006713 2.051459,0.024613 0.678593,0.011188 0.685313,0.00895 0.683073,0.011188 0.683073,0.006712 0.680833,0.013425 2.049219,0.033563 0.680833,0.013426 1.366146,0.022375 0.683073,0.015663 0.680833,0.011188 1.366146,0.031325 0.685312,0.013425 0.678594,0.013425 0.683073,0.020138 1.368386,0.031326 0.678593,0.020138 0.685313,0.015662 0.683073,0.020138 0.678593,0.017901 0.685313,0.020137 0.683073,0.024613 0.683073,0.017901 0.678594,0.024613 0.685312,0.0179 0.683073,0.024613 0.683073,0.02685 0.680833,0.024613 2.049219,0.080552 0.680833,0.029088 0.683073,0.02685 1.368386,0.062651 0.678593,0.031326 2.051459,0.105164 0.678593,0.0358 1.368386,0.076077 0.678594,0.040275 2.051458,0.12754 0.678594,0.046988 1.368385,0.093977 0.683073,0.051463 0.680833,0.051464 1.366146,0.109639 0.683073,0.058176 0.680833,0.058176 0.683073,0.058176 0.683073,0.062651 0.683073,0.067126 0.680834,0.064889 0.683072,0.067126 0.683073,0.071601 0.685313,0.073839 0.678594,0.073839 0.683073,0.078313 1.368385,0.163341 0.678594,0.087264 0.685312,0.085026 0.683073,0.089502 0.678594,0.093976 1.368385,0.194666 0.683073,0.105164 0.678594,0.107402 1.368385,0.217041 0.683073,0.11859 0.680834,0.120827 0.683073,0.120827 1.366145,0.257317 0.680834,0.136489 0.683073,0.13649 0.683073,0.14544 0.685312,0.147678 0.678594,0.152152 0.683073,0.156628 0.683073,0.161103 0.685315,0.167815 0.67859,0.17229 0.68307,0.174528 0.68532,0.181241 0.67859,0.185715 0.68307,0.196904 0.68531,0.199141 0.68308,0.201378 0.67859,0.212566 0.68532,0.214804 0.68307,0.225991 0.68307,0.230466 0.68083,0.234942 0.68308,0.241654 1.36614,0.507921 0.68084,0.266267 0.68307,0.27298 0.68307,0.281929 0.68308,0.288643 0.68083,0.295355 0.68307,0.306542 0.68307,0.311018 0.68532,0.324443 0.67859,0.333393 0.68307,0.337869 0.68532,0.349055 0.68307,0.358006 0.67859,0.371432 0.68308,0.380381 0.68531,0.389332 0.67859,0.398281 0.68307,0.411707 0.68532,0.420658 0.68307,0.434082 0.67859,0.440795 0.68532,0.456457 0.68307,0.469883 0.68307,0.476596 0.68084,0.487783 0.68307,0.503446 0.68307,0.516871 0.68307,0.525822 0.68084,0.539246 0.68307,0.55491 0.68307,0.566097 0.68308,0.583997 0.68083,0.592948 0.68307,0.60861 0.68307,0.61756 0.68532,0.637699 0.67859,0.646648 0.68307,0.664549 0.68532,0.680211 0.67859,0.691399 0.68307,0.711537 0.68532,0.71825 0.68307,0.738388 0.67859,0.749575 0.68531,0.765238 0.68308,0.785375 0.68307,0.796564 0.67859,0.809988 0.68532,0.827889 0.68307,0.839077 0.68307,0.859215 0.68084,0.868164 0.68307,0.886065 0.68307,0.89949 0.68307,0.917391 0.68084,0.928578 0.68307,0.946478 0.68307,0.959904 0.68532,0.968854 0.67859,0.988992 0.68307,1.000179 0.68308,1.015842 0.68083,1.022555 0.68307,1.038218 0.68307,1.056117 0.68532,1.062831 0.67859,1.074018 0.68307,1.089681 0.68532,1.096393 0.68307,1.109819 0.67859,1.121006 0.68532,1.129957 0.68307,1.141144 0.68307,1.143382 0.68083,1.156807 0.68308,1.16352 0.68307,1.17247 0.68307,1.179182 0.68084,1.183657 0.68307,1.190371 0.68307,1.197082 0.68308,1.19932 0.68083,1.206033 0.68307,1.203796 0.68307,1.210508 0.68532,1.214983 0.67859,1.214983 1.36839,2.421015 0.67859,1.210508 1.36839,2.429966 0.68307,1.210508 0.67859,1.208271 1.36839,2.405353 0.68307,1.197083 0.67859,1.185895 0.68532,1.188132 0.68307,1.174707 0.68307,1.17247 0.68084,1.16352 0.68307,1.156807 0.68307,1.147857 0.68307,1.136669 0.68084,1.134432 0.68307,1.116531 0.68307,1.105344 0.68308,1.100868 0.68083,1.094154 0.68307,1.07178 0.68308,1.0606 0.68083,1.05611 0.68307,1.03822 0.68308,1.02703 0.68531,1.01584 0.67859,0.99571 0.68307,0.98899 0.68532,0.96885 0.68307,0.95991 0.67859,0.94648 0.68532,0.92634 0.68307,0.91739 0.68307,0.89725 0.6786,0.88383 0.68531,0.87487 0.68307,0.85474 0.68308,0.84803 0.68083,0.82565 0.68307,0.81223 0.68307,0.79209 0.68308,0.78537 0.68083,0.76076 0.68307,0.75405 0.68308,0.73615 0.68531,0.72944 0.67859,0.70035 0.68307,0.69811 0.68532,0.67126 0.67859,0.66903 0.68307,0.64441 0.68308,0.63546 0.68531,0.62651 0.67859,0.60861 0.68308,0.59071 0.68531,0.58623 0.68307,0.55715 0.67859,0.55939 0.68532,0.54372 0.68307,0.52582 0.68307,0.5124 0.68084,0.49673 0.68307,0.49897 0.68307,0.46988 0.68308,0.47212 0.68083,0.44975 0.68307,0.45198 0.68307,0.42961 0.68308,0.42513 0.68083,0.41171 1.36615,0.7809 0.68083,0.3759 0.68307,0.37367 0.68308,0.36025 0.68531,0.34681 0.67859,0.34011 0.68307,0.33116 0.68532,0.3222 0.68307,0.31549 0.67859,0.30431 0.68308,0.29312 0.68531,0.28864 0.68307,0.28193 0.6786,0.27298 0.68531,0.26627 0.68307,0.25731 0.68307,0.25061 0.68084,0.24613 0.68307,0.23494 0.68307,0.23046 0.68308,0.22152 0.68083,0.2148 0.68307,0.21481 0.68308,0.20361 0.68531,0.19914 0.67859,0.19019 0.68307,0.18796 0.68308,0.18348 0.68083,0.17229 0.68308,0.17229 0.68307,0.16781 0.68531,0.16334 0.67859,0.15216 0.68308,0.15215 0.68531,0.14991 0.68307,0.14321 0.6786,0.13648 0.68531,0.13873 0.68307,0.13202 0.68307,0.1253 0.68084,0.12083 0.68307,0.12082 0.68307,0.11636 0.68308,0.11411 0.68083,0.10516 0.68307,0.10964 0.68307,0.0985 0.68308,0.10069 0.68083,0.094 0.68307,0.094 0.68308,0.0895 0.68083,0.0895 1.36615,0.17229 0.68531,0.0738 0.67859,0.0828 1.36615,0.14768 0.68531,0.0716 0.67859,0.0649 1.36839,0.13425 0.68307,0.0582 0.6786,0.0671 0.68531,0.0582 1.36614,0.10964 0.68084,0.0492 0.68307,0.0559 0.68308,0.0492 0.68307,0.047 0.68083,0.047 0.68307,0.047 0.68308,0.0425 0.68083,0.0447 0.68307,0.0425 1.36615,0.0783 0.68083,0.0358 0.68307,0.038 1.36839,0.0694 0.67859,0.0313 1.36839,0.0627 0.68307,0.0358 0.6786,0.0268 0.68531,0.0313 0.68307,0.0268 0.68307,0.0201 0.6786,0.0313 2.05146,0.0716 0.68083,0.0224 0.68307,0.0224 1.36615,0.0403 0.68083,0.0224 0.68307,0.0157 0.68308,0.0201 0.68083,0.0201 1.36615,0.038 0.68307,0.009 0.68083,0.0201 0.68308,0.0179 1.36838,0.0246 0.6786,0.0179 2.05145,0.0358 0.6786,0.0157 0.68531,0.009 0.68307,0.0157 0.68308,0.0112 0.68083,0.007 1.36615,0.0246 0.68307,0.007 0.68083,0.0134 1.36615,0.0157 0.68083,0.0112 2.04922,0.0224 0.68083,0.009 0.68307,0.0112 1.36839,0.007 0.6786,0.0134 1.36838,0.007 0.68307,0.009 0.6786,0.007 0.68307,0.004 0.68531,0.007 0.68307,0.004 0.6786,0.004 0.68531,0.004 0.68307,0.007 0.68308,0.004 0.68083,0.004 0.68307,0.007 1.36615,0.009 0.68083,0.002 0.68307,0.004 h 0.68308 l 0.68083,0.004 0.68307,0.007 h 0.68308 l 0.68307,0.004 0.68083,0.004 h 0.68308 l 0.68307,0.004 h 0.68531 l 0.6786,0.007 0.68307,0.004 h 0.68531 l 0.68307,0.004 0.6786,0.002 h 0.68531 l 1.36615,0.009 0.67859,0.004 h 2.05146 l 0.68083,0.002 h 0.68308 l 0.68307,0.004 0.68083,0.004 h 1.36615"
       transform="matrix(1.744186,0,0,-1.745781,63.231977,294.9828)"
       id="path77" />
  </g>
  <text
     xml:space="preserve"
     transform="scale(0.75)"
     id="text2287"
     style="fill:#000000;stroke-width:4;white-space:pre;shape-inside:url(#rect2289)" />
</svg>
